<svg xmlns="http://www.w3.org/2000/svg" viewBox="0 0 64 64">
  <defs>
    <linearGradient id="bg" x1="0%" y1="0%" x2="100%" y2="100%">
      <stop offset="0%" style="stop-color:#1E4697;stop-opacity:1" />
      <stop offset="100%" style="stop-color:#2956B2;stop-opacity:1" />
    </linearGradient>
  </defs>
  <circle cx="32" cy="32" r="32" fill="url(#bg)"/>
  <path d="M32 8 C28 8 26 12 26 16 C26 20 28 22 28 26 C28 30 26 32 26 36 C26 44 30 48 32 56 C34 48 38 44 38 36 C38 32 36 30 36 26 C36 22 38 20 38 16 C38 12 36 8 32 8 Z" fill="white"/>
  <path d="M30 14 L30 28 M34 14 L34 28 M28 34 L28 50 M36 34 L36 50" stroke="#1E4697" stroke-width="2.5" stroke-linecap="round"/>
</svg>
